# xmcd
#
# Track frame offsets: 
#        150
#        10087
#        23115
#        34582
#        43692
#        55990
#        68397
#        77165
#        89587
#        96855
#        106215
#        119167
#        131817
#        144850
#        156327
#        165120
#        175602
#        190717
#        203772
#        212630
#        224972
#        241485
#        261075
#        275227
#        291540
#        297977
#        308555
#        315237
#        322255
#
# Disc length: 4503 seconds
#
# Revision: 1
# Processed by: cddbd v1.5.2PL0 Copyright (c) Steve Scherf et al.
# Submitted via: ExactAudioCopy v0.99pb4
#
DISCID=af11951d
DTITLE=Carl Perkins - The Ultimate Collection-Disc 2
DYEAR=1998
DGENRE=Country
TTITLE0=Honky Tonk Babe (alt.)
TTITLE1=What You Doin' When You're Crying
TTITLE2=You Can't Make Love To Somebody
TTITLE3=Dixie Bop
TTITLE4=Cat Clothes (alt.)
TTITLE5=Sweethearts Or Strangers
TTITLE6=That Don't Move Me
TTITLE7=Lonely street (alt.)
TTITLE8=Pink Pedal Pushers-(alt.)
TTITLE9=Caldonia
TTITLE10=Roll Over Beethoven
TTITLE11=Put Your Cat Clothes On (alt.)
TTITLE12=Her Love Rubbed Off
TTITLE13=You Can Do No Wrong-(alt.)
TTITLE14=Honky Tonk Gal
TTITLE15=I Care
TTITLE16=Y.O.U.
TTITLE17=Try My Heart Out
TTITLE18=Look At That Moon
TTITLE19=Be Honest With Me
TTITLE20=Drink Up And Go Home (demo)
TTITLE21=Somebody Tell Me (demo)
TTITLE22=The Way You're Living Is Breaking My Heart (demo)
TTITLE23=Take Back My Love (demo)
TTITLE24=Down By The Riverside (demo)
TTITLE25=Red Wing (demo)
TTITLE26=Instrumental Medley #1 (demo)
TTITLE27=Instrumental Medley #2 (demo)
TTITLE28=Keeper Of The Key
EXTD=
EXTT0=
EXTT1=
EXTT2=
EXTT3=
EXTT4=
EXTT5=
EXTT6=
EXTT7=
EXTT8=
EXTT9=
EXTT10=
EXTT11=
EXTT12=
EXTT13=
EXTT14=
EXTT15=
EXTT16=
EXTT17=
EXTT18=
EXTT19=
EXTT20=
EXTT21=
EXTT22=
EXTT23=
EXTT24=
EXTT25=
EXTT26=
EXTT27=
EXTT28=
PLAYORDER=
